G04 EAGLE Gerber RS-274X export*
G75*
%MOMM*%
%FSLAX34Y34*%
%LPD*%
%INBottom Copper*%
%IPPOS*%
%AMOC8*
5,1,8,0,0,1.08239X$1,22.5*%
G01*
%ADD10C,1.320800*%
%ADD11C,0.152400*%
%ADD12C,0.756400*%


D10*
X44704Y25400D02*
X31496Y25400D01*
X31496Y50800D02*
X44704Y50800D01*
X44704Y76200D02*
X31496Y76200D01*
X31496Y101600D02*
X44704Y101600D01*
X44704Y127000D02*
X31496Y127000D01*
X31496Y152400D02*
X44704Y152400D01*
X44704Y177800D02*
X31496Y177800D01*
X31496Y203200D02*
X44704Y203200D01*
X44704Y228600D02*
X31496Y228600D01*
X31496Y254000D02*
X44704Y254000D01*
X44704Y279400D02*
X31496Y279400D01*
X31496Y304800D02*
X44704Y304800D01*
D11*
X96012Y275844D02*
X96012Y243840D01*
X96012Y275844D02*
X99060Y278892D01*
X137160Y202692D02*
X147828Y202692D01*
X137160Y202692D02*
X96012Y243840D01*
D12*
X96012Y243840D03*
X99060Y278892D03*
X147828Y202692D03*
D11*
X164592Y315468D02*
X114300Y315468D01*
X100584Y301752D01*
X100584Y289560D01*
X89916Y278892D01*
X89916Y230124D01*
D12*
X164592Y315468D03*
X100584Y301752D03*
X89916Y230124D03*
D11*
X71628Y245364D02*
X71628Y173736D01*
X71628Y245364D02*
X38100Y278892D01*
X38100Y279400D01*
D12*
X71628Y173736D03*
D11*
X129540Y291084D02*
X129540Y294132D01*
X129540Y291084D02*
X153924Y266700D01*
X160020Y266700D01*
X176784Y283464D01*
X176784Y327660D01*
X167640Y336804D01*
X50292Y336804D01*
X18288Y304800D01*
X18288Y152400D01*
X27432Y143256D01*
X48768Y143256D01*
X54864Y149352D01*
X54864Y211836D01*
X38100Y228600D01*
D12*
X129540Y294132D03*
D11*
X112776Y327660D02*
X163068Y327660D01*
X112776Y327660D02*
X60960Y275844D01*
D12*
X163068Y327660D03*
X60960Y275844D03*
D11*
X163068Y288036D02*
X163068Y300228D01*
X173736Y310896D01*
X173736Y326136D01*
X166116Y333756D01*
X86868Y333756D01*
X42672Y289560D01*
X28956Y289560D01*
X21336Y281940D01*
X21336Y169164D01*
X38100Y152400D01*
D12*
X163068Y288036D03*
D11*
X156972Y298704D02*
X156972Y272796D01*
X156972Y298704D02*
X170688Y312420D01*
X170688Y318516D01*
X167640Y321564D01*
X111252Y321564D01*
X77724Y288036D01*
X77724Y167640D01*
X38100Y128016D01*
X38100Y127000D01*
D12*
X156972Y272796D03*
D11*
X83820Y222504D02*
X83820Y155448D01*
X54864Y126492D01*
X54864Y68580D01*
X38100Y51816D01*
X38100Y50800D01*
D12*
X83820Y222504D03*
D11*
X83820Y146304D02*
X131064Y99060D01*
D12*
X131064Y99060D03*
X83820Y146304D03*
D11*
X146304Y184404D02*
X146304Y99060D01*
X146304Y184404D02*
X102108Y228600D01*
D12*
X146304Y99060D03*
X102108Y228600D03*
M02*
