G04 EAGLE Gerber RS-274X export*
G75*
%MOMM*%
%FSLAX34Y34*%
%LPD*%
%INSilkscreen Top*%
%IPPOS*%
%AMOC8*
5,1,8,0,0,1.08239X$1,22.5*%
G01*
%ADD10C,0.250000*%
%ADD11C,0.101600*%
%ADD12C,0.200000*%
%ADD13C,0.127000*%
%ADD14C,0.152400*%


D10*
X160050Y315050D02*
X160052Y315120D01*
X160058Y315190D01*
X160068Y315259D01*
X160081Y315328D01*
X160099Y315396D01*
X160120Y315463D01*
X160145Y315528D01*
X160174Y315592D01*
X160206Y315655D01*
X160242Y315715D01*
X160281Y315773D01*
X160323Y315829D01*
X160368Y315883D01*
X160416Y315934D01*
X160467Y315982D01*
X160521Y316027D01*
X160577Y316069D01*
X160635Y316108D01*
X160695Y316144D01*
X160758Y316176D01*
X160822Y316205D01*
X160887Y316230D01*
X160954Y316251D01*
X161022Y316269D01*
X161091Y316282D01*
X161160Y316292D01*
X161230Y316298D01*
X161300Y316300D01*
X161370Y316298D01*
X161440Y316292D01*
X161509Y316282D01*
X161578Y316269D01*
X161646Y316251D01*
X161713Y316230D01*
X161778Y316205D01*
X161842Y316176D01*
X161905Y316144D01*
X161965Y316108D01*
X162023Y316069D01*
X162079Y316027D01*
X162133Y315982D01*
X162184Y315934D01*
X162232Y315883D01*
X162277Y315829D01*
X162319Y315773D01*
X162358Y315715D01*
X162394Y315655D01*
X162426Y315592D01*
X162455Y315528D01*
X162480Y315463D01*
X162501Y315396D01*
X162519Y315328D01*
X162532Y315259D01*
X162542Y315190D01*
X162548Y315120D01*
X162550Y315050D01*
X162548Y314980D01*
X162542Y314910D01*
X162532Y314841D01*
X162519Y314772D01*
X162501Y314704D01*
X162480Y314637D01*
X162455Y314572D01*
X162426Y314508D01*
X162394Y314445D01*
X162358Y314385D01*
X162319Y314327D01*
X162277Y314271D01*
X162232Y314217D01*
X162184Y314166D01*
X162133Y314118D01*
X162079Y314073D01*
X162023Y314031D01*
X161965Y313992D01*
X161905Y313956D01*
X161842Y313924D01*
X161778Y313895D01*
X161713Y313870D01*
X161646Y313849D01*
X161578Y313831D01*
X161509Y313818D01*
X161440Y313808D01*
X161370Y313802D01*
X161300Y313800D01*
X161230Y313802D01*
X161160Y313808D01*
X161091Y313818D01*
X161022Y313831D01*
X160954Y313849D01*
X160887Y313870D01*
X160822Y313895D01*
X160758Y313924D01*
X160695Y313956D01*
X160635Y313992D01*
X160577Y314031D01*
X160521Y314073D01*
X160467Y314118D01*
X160416Y314166D01*
X160368Y314217D01*
X160323Y314271D01*
X160281Y314327D01*
X160242Y314385D01*
X160206Y314445D01*
X160174Y314508D01*
X160145Y314572D01*
X160120Y314637D01*
X160099Y314704D01*
X160081Y314772D01*
X160068Y314841D01*
X160058Y314910D01*
X160052Y314980D01*
X160050Y315050D01*
D11*
X166492Y284242D02*
X166492Y272558D01*
X165194Y272558D02*
X167790Y272558D01*
X167790Y284242D02*
X165194Y284242D01*
X174954Y272558D02*
X177550Y272558D01*
X174954Y272558D02*
X174855Y272560D01*
X174755Y272566D01*
X174656Y272575D01*
X174558Y272588D01*
X174460Y272605D01*
X174362Y272626D01*
X174266Y272651D01*
X174171Y272679D01*
X174077Y272711D01*
X173984Y272746D01*
X173892Y272785D01*
X173802Y272828D01*
X173714Y272873D01*
X173627Y272923D01*
X173543Y272975D01*
X173460Y273031D01*
X173380Y273089D01*
X173302Y273151D01*
X173227Y273216D01*
X173154Y273284D01*
X173084Y273354D01*
X173016Y273427D01*
X172951Y273502D01*
X172889Y273580D01*
X172831Y273660D01*
X172775Y273743D01*
X172723Y273827D01*
X172673Y273914D01*
X172628Y274002D01*
X172585Y274092D01*
X172546Y274184D01*
X172511Y274277D01*
X172479Y274371D01*
X172451Y274466D01*
X172426Y274562D01*
X172405Y274660D01*
X172388Y274758D01*
X172375Y274856D01*
X172366Y274955D01*
X172360Y275055D01*
X172358Y275154D01*
X172357Y275154D02*
X172357Y281646D01*
X172358Y281646D02*
X172360Y281745D01*
X172366Y281845D01*
X172375Y281944D01*
X172388Y282042D01*
X172405Y282140D01*
X172426Y282238D01*
X172451Y282334D01*
X172479Y282429D01*
X172511Y282523D01*
X172546Y282616D01*
X172585Y282708D01*
X172628Y282798D01*
X172673Y282886D01*
X172723Y282973D01*
X172775Y283057D01*
X172831Y283140D01*
X172889Y283220D01*
X172951Y283298D01*
X173016Y283373D01*
X173084Y283446D01*
X173154Y283516D01*
X173227Y283584D01*
X173302Y283649D01*
X173380Y283711D01*
X173460Y283769D01*
X173543Y283825D01*
X173627Y283877D01*
X173714Y283927D01*
X173802Y283972D01*
X173892Y284015D01*
X173984Y284054D01*
X174076Y284089D01*
X174171Y284121D01*
X174266Y284149D01*
X174362Y284174D01*
X174460Y284195D01*
X174558Y284212D01*
X174656Y284225D01*
X174755Y284234D01*
X174855Y284240D01*
X174954Y284242D01*
X177550Y284242D01*
X181915Y281646D02*
X185161Y284242D01*
X185161Y272558D01*
X188406Y272558D02*
X181915Y272558D01*
D12*
X132800Y311900D02*
X95800Y311900D01*
X132800Y311900D02*
X132800Y246900D01*
X95800Y246900D01*
X95800Y311900D01*
X92300Y314400D02*
X77550Y314400D01*
D11*
X103992Y239442D02*
X103992Y227758D01*
X102694Y227758D02*
X105290Y227758D01*
X105290Y239442D02*
X102694Y239442D01*
X112454Y227758D02*
X115050Y227758D01*
X112454Y227758D02*
X112355Y227760D01*
X112255Y227766D01*
X112156Y227775D01*
X112058Y227788D01*
X111960Y227805D01*
X111862Y227826D01*
X111766Y227851D01*
X111671Y227879D01*
X111577Y227911D01*
X111484Y227946D01*
X111392Y227985D01*
X111302Y228028D01*
X111214Y228073D01*
X111127Y228123D01*
X111043Y228175D01*
X110960Y228231D01*
X110880Y228289D01*
X110802Y228351D01*
X110727Y228416D01*
X110654Y228484D01*
X110584Y228554D01*
X110516Y228627D01*
X110451Y228702D01*
X110389Y228780D01*
X110331Y228860D01*
X110275Y228943D01*
X110223Y229027D01*
X110173Y229114D01*
X110128Y229202D01*
X110085Y229292D01*
X110046Y229384D01*
X110011Y229477D01*
X109979Y229571D01*
X109951Y229666D01*
X109926Y229762D01*
X109905Y229860D01*
X109888Y229958D01*
X109875Y230056D01*
X109866Y230155D01*
X109860Y230255D01*
X109858Y230354D01*
X109857Y230354D02*
X109857Y236846D01*
X109858Y236846D02*
X109860Y236945D01*
X109866Y237045D01*
X109875Y237144D01*
X109888Y237242D01*
X109905Y237340D01*
X109926Y237438D01*
X109951Y237534D01*
X109979Y237629D01*
X110011Y237723D01*
X110046Y237816D01*
X110085Y237908D01*
X110128Y237998D01*
X110173Y238086D01*
X110223Y238173D01*
X110275Y238257D01*
X110331Y238340D01*
X110389Y238420D01*
X110451Y238498D01*
X110516Y238573D01*
X110584Y238646D01*
X110654Y238716D01*
X110727Y238784D01*
X110802Y238849D01*
X110880Y238911D01*
X110960Y238969D01*
X111043Y239025D01*
X111127Y239077D01*
X111214Y239127D01*
X111302Y239172D01*
X111392Y239215D01*
X111484Y239254D01*
X111576Y239289D01*
X111671Y239321D01*
X111766Y239349D01*
X111862Y239374D01*
X111960Y239395D01*
X112058Y239412D01*
X112156Y239425D01*
X112255Y239434D01*
X112355Y239440D01*
X112454Y239442D01*
X115050Y239442D01*
X122985Y239442D02*
X123092Y239440D01*
X123198Y239434D01*
X123304Y239424D01*
X123410Y239411D01*
X123516Y239393D01*
X123620Y239372D01*
X123724Y239347D01*
X123827Y239318D01*
X123928Y239286D01*
X124028Y239249D01*
X124127Y239209D01*
X124225Y239166D01*
X124321Y239119D01*
X124415Y239068D01*
X124507Y239014D01*
X124597Y238957D01*
X124685Y238897D01*
X124770Y238833D01*
X124853Y238766D01*
X124934Y238696D01*
X125012Y238624D01*
X125088Y238548D01*
X125160Y238470D01*
X125230Y238389D01*
X125297Y238306D01*
X125361Y238221D01*
X125421Y238133D01*
X125478Y238043D01*
X125532Y237951D01*
X125583Y237857D01*
X125630Y237761D01*
X125673Y237663D01*
X125713Y237564D01*
X125750Y237464D01*
X125782Y237363D01*
X125811Y237260D01*
X125836Y237156D01*
X125857Y237052D01*
X125875Y236946D01*
X125888Y236840D01*
X125898Y236734D01*
X125904Y236628D01*
X125906Y236521D01*
X122985Y239442D02*
X122864Y239440D01*
X122743Y239434D01*
X122623Y239424D01*
X122502Y239411D01*
X122383Y239393D01*
X122263Y239372D01*
X122145Y239347D01*
X122028Y239318D01*
X121911Y239285D01*
X121796Y239249D01*
X121682Y239208D01*
X121569Y239165D01*
X121457Y239117D01*
X121348Y239066D01*
X121240Y239011D01*
X121133Y238953D01*
X121029Y238892D01*
X120927Y238827D01*
X120827Y238759D01*
X120729Y238688D01*
X120633Y238614D01*
X120540Y238537D01*
X120450Y238456D01*
X120362Y238373D01*
X120277Y238287D01*
X120194Y238198D01*
X120115Y238107D01*
X120038Y238013D01*
X119965Y237917D01*
X119895Y237819D01*
X119828Y237718D01*
X119764Y237615D01*
X119704Y237510D01*
X119647Y237403D01*
X119593Y237295D01*
X119543Y237185D01*
X119497Y237073D01*
X119454Y236960D01*
X119415Y236845D01*
X124933Y234249D02*
X125012Y234326D01*
X125088Y234407D01*
X125161Y234490D01*
X125231Y234575D01*
X125298Y234663D01*
X125362Y234753D01*
X125422Y234845D01*
X125479Y234940D01*
X125533Y235036D01*
X125584Y235134D01*
X125631Y235234D01*
X125675Y235336D01*
X125715Y235439D01*
X125751Y235543D01*
X125783Y235649D01*
X125812Y235755D01*
X125837Y235863D01*
X125859Y235971D01*
X125876Y236081D01*
X125890Y236190D01*
X125899Y236300D01*
X125905Y236411D01*
X125907Y236521D01*
X124933Y234249D02*
X119415Y227758D01*
X125906Y227758D01*
D13*
X90000Y16900D02*
X210100Y16900D01*
X82650Y29800D02*
X82650Y70400D01*
X82650Y90600D02*
X82650Y147900D01*
X222150Y74800D02*
X222150Y50900D01*
X222150Y106600D02*
X222150Y142700D01*
X130795Y149000D02*
X130797Y149063D01*
X130803Y149126D01*
X130813Y149188D01*
X130827Y149250D01*
X130844Y149311D01*
X130866Y149370D01*
X130891Y149428D01*
X130919Y149484D01*
X130951Y149539D01*
X130987Y149591D01*
X131026Y149641D01*
X131067Y149688D01*
X131112Y149733D01*
X131159Y149774D01*
X131209Y149813D01*
X131261Y149849D01*
X131316Y149881D01*
X131372Y149909D01*
X131430Y149934D01*
X131489Y149956D01*
X131550Y149973D01*
X131612Y149987D01*
X131674Y149997D01*
X131737Y150003D01*
X131800Y150005D01*
X131863Y150003D01*
X131926Y149997D01*
X131988Y149987D01*
X132050Y149973D01*
X132111Y149956D01*
X132170Y149934D01*
X132228Y149909D01*
X132284Y149881D01*
X132339Y149849D01*
X132391Y149813D01*
X132441Y149774D01*
X132488Y149733D01*
X132533Y149688D01*
X132574Y149641D01*
X132613Y149591D01*
X132649Y149539D01*
X132681Y149484D01*
X132709Y149428D01*
X132734Y149370D01*
X132756Y149311D01*
X132773Y149250D01*
X132787Y149188D01*
X132797Y149126D01*
X132803Y149063D01*
X132805Y149000D01*
X132803Y148937D01*
X132797Y148874D01*
X132787Y148812D01*
X132773Y148750D01*
X132756Y148689D01*
X132734Y148630D01*
X132709Y148572D01*
X132681Y148516D01*
X132649Y148461D01*
X132613Y148409D01*
X132574Y148359D01*
X132533Y148312D01*
X132488Y148267D01*
X132441Y148226D01*
X132391Y148187D01*
X132339Y148151D01*
X132284Y148119D01*
X132228Y148091D01*
X132170Y148066D01*
X132111Y148044D01*
X132050Y148027D01*
X131988Y148013D01*
X131926Y148003D01*
X131863Y147997D01*
X131800Y147995D01*
X131737Y147997D01*
X131674Y148003D01*
X131612Y148013D01*
X131550Y148027D01*
X131489Y148044D01*
X131430Y148066D01*
X131372Y148091D01*
X131316Y148119D01*
X131261Y148151D01*
X131209Y148187D01*
X131159Y148226D01*
X131112Y148267D01*
X131067Y148312D01*
X131026Y148359D01*
X130987Y148409D01*
X130951Y148461D01*
X130919Y148516D01*
X130891Y148572D01*
X130866Y148630D01*
X130844Y148689D01*
X130827Y148750D01*
X130813Y148812D01*
X130803Y148874D01*
X130797Y148937D01*
X130795Y149000D01*
D11*
X233130Y17833D02*
X233130Y8734D01*
X233128Y8634D01*
X233122Y8535D01*
X233113Y8436D01*
X233100Y8337D01*
X233082Y8239D01*
X233062Y8142D01*
X233037Y8045D01*
X233009Y7950D01*
X232977Y7855D01*
X232942Y7762D01*
X232903Y7670D01*
X232860Y7580D01*
X232814Y7492D01*
X232765Y7405D01*
X232712Y7321D01*
X232657Y7238D01*
X232598Y7158D01*
X232536Y7080D01*
X232471Y7004D01*
X232403Y6931D01*
X232333Y6861D01*
X232260Y6793D01*
X232184Y6728D01*
X232106Y6666D01*
X232026Y6607D01*
X231943Y6552D01*
X231859Y6499D01*
X231772Y6450D01*
X231684Y6404D01*
X231594Y6361D01*
X231502Y6322D01*
X231409Y6287D01*
X231314Y6255D01*
X231219Y6227D01*
X231122Y6202D01*
X231025Y6182D01*
X230927Y6164D01*
X230828Y6151D01*
X230729Y6142D01*
X230630Y6136D01*
X230530Y6134D01*
X229231Y6134D01*
X238409Y15233D02*
X241659Y17833D01*
X241659Y6134D01*
X244908Y6134D02*
X238409Y6134D01*
X77595Y191758D02*
X77595Y203442D01*
X80840Y203442D01*
X80953Y203440D01*
X81066Y203434D01*
X81179Y203424D01*
X81292Y203410D01*
X81404Y203393D01*
X81515Y203371D01*
X81625Y203346D01*
X81735Y203316D01*
X81843Y203283D01*
X81950Y203246D01*
X82056Y203206D01*
X82160Y203161D01*
X82263Y203113D01*
X82364Y203062D01*
X82463Y203007D01*
X82560Y202949D01*
X82655Y202887D01*
X82748Y202822D01*
X82838Y202754D01*
X82926Y202683D01*
X83012Y202608D01*
X83095Y202531D01*
X83175Y202451D01*
X83252Y202368D01*
X83327Y202282D01*
X83398Y202194D01*
X83466Y202104D01*
X83531Y202011D01*
X83593Y201916D01*
X83651Y201819D01*
X83706Y201720D01*
X83757Y201619D01*
X83805Y201516D01*
X83850Y201412D01*
X83890Y201306D01*
X83927Y201199D01*
X83960Y201091D01*
X83990Y200981D01*
X84015Y200871D01*
X84037Y200760D01*
X84054Y200648D01*
X84068Y200535D01*
X84078Y200422D01*
X84084Y200309D01*
X84086Y200196D01*
X84084Y200083D01*
X84078Y199970D01*
X84068Y199857D01*
X84054Y199744D01*
X84037Y199632D01*
X84015Y199521D01*
X83990Y199411D01*
X83960Y199301D01*
X83927Y199193D01*
X83890Y199086D01*
X83850Y198980D01*
X83805Y198876D01*
X83757Y198773D01*
X83706Y198672D01*
X83651Y198573D01*
X83593Y198476D01*
X83531Y198381D01*
X83466Y198288D01*
X83398Y198198D01*
X83327Y198110D01*
X83252Y198024D01*
X83175Y197941D01*
X83095Y197861D01*
X83012Y197784D01*
X82926Y197709D01*
X82838Y197638D01*
X82748Y197570D01*
X82655Y197505D01*
X82560Y197443D01*
X82463Y197385D01*
X82364Y197330D01*
X82263Y197279D01*
X82160Y197231D01*
X82056Y197186D01*
X81950Y197146D01*
X81843Y197109D01*
X81735Y197076D01*
X81625Y197046D01*
X81515Y197021D01*
X81404Y196999D01*
X81292Y196982D01*
X81179Y196968D01*
X81066Y196958D01*
X80953Y196952D01*
X80840Y196950D01*
X80840Y196951D02*
X77595Y196951D01*
X81489Y196951D02*
X84086Y191758D01*
X88951Y200846D02*
X92196Y203442D01*
X92196Y191758D01*
X88951Y191758D02*
X95442Y191758D01*
X118658Y217158D02*
X118658Y228842D01*
X121904Y228842D01*
X122017Y228840D01*
X122130Y228834D01*
X122243Y228824D01*
X122356Y228810D01*
X122468Y228793D01*
X122579Y228771D01*
X122689Y228746D01*
X122799Y228716D01*
X122907Y228683D01*
X123014Y228646D01*
X123120Y228606D01*
X123224Y228561D01*
X123327Y228513D01*
X123428Y228462D01*
X123527Y228407D01*
X123624Y228349D01*
X123719Y228287D01*
X123812Y228222D01*
X123902Y228154D01*
X123990Y228083D01*
X124076Y228008D01*
X124159Y227931D01*
X124239Y227851D01*
X124316Y227768D01*
X124391Y227682D01*
X124462Y227594D01*
X124530Y227504D01*
X124595Y227411D01*
X124657Y227316D01*
X124715Y227219D01*
X124770Y227120D01*
X124821Y227019D01*
X124869Y226916D01*
X124914Y226812D01*
X124954Y226706D01*
X124991Y226599D01*
X125024Y226491D01*
X125054Y226381D01*
X125079Y226271D01*
X125101Y226160D01*
X125118Y226048D01*
X125132Y225935D01*
X125142Y225822D01*
X125148Y225709D01*
X125150Y225596D01*
X125148Y225483D01*
X125142Y225370D01*
X125132Y225257D01*
X125118Y225144D01*
X125101Y225032D01*
X125079Y224921D01*
X125054Y224811D01*
X125024Y224701D01*
X124991Y224593D01*
X124954Y224486D01*
X124914Y224380D01*
X124869Y224276D01*
X124821Y224173D01*
X124770Y224072D01*
X124715Y223973D01*
X124657Y223876D01*
X124595Y223781D01*
X124530Y223688D01*
X124462Y223598D01*
X124391Y223510D01*
X124316Y223424D01*
X124239Y223341D01*
X124159Y223261D01*
X124076Y223184D01*
X123990Y223109D01*
X123902Y223038D01*
X123812Y222970D01*
X123719Y222905D01*
X123624Y222843D01*
X123527Y222785D01*
X123428Y222730D01*
X123327Y222679D01*
X123224Y222631D01*
X123120Y222586D01*
X123014Y222546D01*
X122907Y222509D01*
X122799Y222476D01*
X122689Y222446D01*
X122579Y222421D01*
X122468Y222399D01*
X122356Y222382D01*
X122243Y222368D01*
X122130Y222358D01*
X122017Y222352D01*
X121904Y222350D01*
X121904Y222351D02*
X118658Y222351D01*
X122553Y222351D02*
X125149Y217158D01*
X136505Y225921D02*
X136503Y226028D01*
X136497Y226134D01*
X136487Y226240D01*
X136474Y226346D01*
X136456Y226452D01*
X136435Y226556D01*
X136410Y226660D01*
X136381Y226763D01*
X136349Y226864D01*
X136312Y226964D01*
X136272Y227063D01*
X136229Y227161D01*
X136182Y227257D01*
X136131Y227351D01*
X136077Y227443D01*
X136020Y227533D01*
X135960Y227621D01*
X135896Y227706D01*
X135829Y227789D01*
X135759Y227870D01*
X135687Y227948D01*
X135611Y228024D01*
X135533Y228096D01*
X135452Y228166D01*
X135369Y228233D01*
X135284Y228297D01*
X135196Y228357D01*
X135106Y228414D01*
X135014Y228468D01*
X134920Y228519D01*
X134824Y228566D01*
X134726Y228609D01*
X134627Y228649D01*
X134527Y228686D01*
X134426Y228718D01*
X134323Y228747D01*
X134219Y228772D01*
X134115Y228793D01*
X134009Y228811D01*
X133903Y228824D01*
X133797Y228834D01*
X133691Y228840D01*
X133584Y228842D01*
X133463Y228840D01*
X133342Y228834D01*
X133222Y228824D01*
X133101Y228811D01*
X132982Y228793D01*
X132862Y228772D01*
X132744Y228747D01*
X132627Y228718D01*
X132510Y228685D01*
X132395Y228649D01*
X132281Y228608D01*
X132168Y228565D01*
X132056Y228517D01*
X131947Y228466D01*
X131839Y228411D01*
X131732Y228353D01*
X131628Y228292D01*
X131526Y228227D01*
X131426Y228159D01*
X131328Y228088D01*
X131232Y228014D01*
X131139Y227937D01*
X131049Y227856D01*
X130961Y227773D01*
X130876Y227687D01*
X130793Y227598D01*
X130714Y227507D01*
X130637Y227413D01*
X130564Y227317D01*
X130494Y227219D01*
X130427Y227118D01*
X130363Y227015D01*
X130303Y226910D01*
X130246Y226803D01*
X130192Y226695D01*
X130142Y226585D01*
X130096Y226473D01*
X130053Y226360D01*
X130014Y226245D01*
X135532Y223649D02*
X135611Y223726D01*
X135687Y223807D01*
X135760Y223890D01*
X135830Y223975D01*
X135897Y224063D01*
X135961Y224153D01*
X136021Y224245D01*
X136078Y224340D01*
X136132Y224436D01*
X136183Y224534D01*
X136230Y224634D01*
X136274Y224736D01*
X136314Y224839D01*
X136350Y224943D01*
X136382Y225049D01*
X136411Y225155D01*
X136436Y225263D01*
X136458Y225371D01*
X136475Y225481D01*
X136489Y225590D01*
X136498Y225700D01*
X136504Y225811D01*
X136506Y225921D01*
X135532Y223649D02*
X130014Y217158D01*
X136505Y217158D01*
D14*
X50800Y12700D02*
X25400Y12700D01*
X50800Y12700D02*
X50800Y35560D01*
X48260Y38100D01*
X50800Y40640D01*
X50800Y60960D01*
X48260Y63500D01*
X50800Y66040D01*
X50800Y86360D01*
X48260Y88900D01*
X50800Y91440D01*
X50800Y111760D01*
X48260Y114300D01*
X50800Y116840D01*
X27940Y114300D02*
X25400Y116840D01*
X27940Y114300D02*
X25400Y111760D01*
X25400Y91440D01*
X27940Y88900D01*
X25400Y86360D01*
X25400Y66040D01*
X27940Y63500D01*
X25400Y60960D01*
X25400Y40640D01*
X27940Y38100D01*
X25400Y35560D01*
X25400Y12700D01*
X50800Y116840D02*
X50800Y137160D01*
X48260Y139700D01*
X50800Y142240D01*
X50800Y162560D01*
X48260Y165100D01*
X50800Y167640D01*
X27940Y165100D02*
X25400Y167640D01*
X27940Y165100D02*
X25400Y162560D01*
X25400Y142240D01*
X27940Y139700D01*
X25400Y137160D01*
X25400Y116840D01*
X25400Y294640D02*
X25400Y317500D01*
X25400Y289560D02*
X25400Y269240D01*
X25400Y264160D02*
X25400Y243840D01*
X25400Y238760D02*
X25400Y218440D01*
X25400Y213360D02*
X25400Y193040D01*
X25400Y317500D02*
X50800Y317500D01*
X50800Y213360D02*
X50800Y193040D01*
X50800Y218440D02*
X50800Y238760D01*
X50800Y243840D02*
X50800Y264160D01*
X50800Y269240D02*
X50800Y289560D01*
X50800Y294640D02*
X50800Y317500D01*
X27940Y190500D02*
X25400Y187960D01*
X27940Y190500D02*
X25400Y193040D01*
X25400Y187960D02*
X25400Y167640D01*
X48260Y190500D02*
X50800Y193040D01*
X48260Y190500D02*
X50800Y187960D01*
X50800Y167640D01*
X27940Y215900D02*
X25400Y218440D01*
X27940Y215900D02*
X25400Y213360D01*
X48260Y215900D02*
X50800Y218440D01*
X48260Y215900D02*
X50800Y213360D01*
X48260Y241300D02*
X50800Y243840D01*
X48260Y241300D02*
X50800Y238760D01*
X27940Y241300D02*
X25400Y243840D01*
X27940Y241300D02*
X25400Y238760D01*
X27940Y266700D02*
X25400Y269240D01*
X27940Y266700D02*
X25400Y264160D01*
X27940Y292100D02*
X25400Y294640D01*
X27940Y292100D02*
X25400Y289560D01*
X48260Y266700D02*
X50800Y269240D01*
X48260Y266700D02*
X50800Y264160D01*
X48260Y292100D02*
X50800Y294640D01*
X48260Y292100D02*
X50800Y289560D01*
D13*
X10795Y24130D02*
X13335Y20955D01*
X10795Y24130D02*
X22225Y24130D01*
X22225Y20955D02*
X22225Y27305D01*
X13335Y294005D02*
X10795Y297180D01*
X22225Y297180D01*
X22225Y294005D02*
X22225Y300355D01*
X10795Y308928D02*
X10797Y309032D01*
X10803Y309137D01*
X10812Y309241D01*
X10825Y309344D01*
X10843Y309447D01*
X10863Y309549D01*
X10888Y309651D01*
X10916Y309751D01*
X10948Y309851D01*
X10984Y309949D01*
X11023Y310046D01*
X11065Y310141D01*
X11111Y310235D01*
X11161Y310327D01*
X11213Y310417D01*
X11269Y310505D01*
X11329Y310591D01*
X11391Y310675D01*
X11456Y310756D01*
X11524Y310835D01*
X11596Y310912D01*
X11669Y310985D01*
X11746Y311057D01*
X11825Y311125D01*
X11906Y311190D01*
X11990Y311252D01*
X12076Y311312D01*
X12164Y311368D01*
X12254Y311420D01*
X12346Y311470D01*
X12440Y311516D01*
X12535Y311558D01*
X12632Y311597D01*
X12730Y311633D01*
X12830Y311665D01*
X12930Y311693D01*
X13032Y311718D01*
X13134Y311738D01*
X13237Y311756D01*
X13340Y311769D01*
X13444Y311778D01*
X13549Y311784D01*
X13653Y311786D01*
X10795Y308928D02*
X10797Y308810D01*
X10803Y308691D01*
X10812Y308573D01*
X10825Y308456D01*
X10843Y308339D01*
X10863Y308222D01*
X10888Y308106D01*
X10916Y307991D01*
X10949Y307878D01*
X10984Y307765D01*
X11024Y307653D01*
X11066Y307543D01*
X11113Y307434D01*
X11163Y307326D01*
X11216Y307221D01*
X11273Y307117D01*
X11333Y307015D01*
X11396Y306915D01*
X11463Y306817D01*
X11532Y306721D01*
X11605Y306628D01*
X11681Y306537D01*
X11759Y306448D01*
X11841Y306362D01*
X11925Y306279D01*
X12011Y306198D01*
X12101Y306121D01*
X12192Y306046D01*
X12286Y305974D01*
X12383Y305905D01*
X12481Y305840D01*
X12582Y305777D01*
X12685Y305718D01*
X12789Y305662D01*
X12895Y305610D01*
X13003Y305561D01*
X13112Y305516D01*
X13223Y305474D01*
X13335Y305436D01*
X15875Y310833D02*
X15800Y310909D01*
X15721Y310984D01*
X15640Y311055D01*
X15556Y311124D01*
X15470Y311189D01*
X15382Y311251D01*
X15292Y311311D01*
X15200Y311367D01*
X15105Y311420D01*
X15009Y311469D01*
X14911Y311515D01*
X14812Y311558D01*
X14711Y311597D01*
X14609Y311632D01*
X14506Y311664D01*
X14402Y311692D01*
X14297Y311717D01*
X14190Y311738D01*
X14084Y311755D01*
X13977Y311768D01*
X13869Y311777D01*
X13761Y311783D01*
X13653Y311785D01*
X15875Y310833D02*
X22225Y305435D01*
X22225Y311785D01*
X18415Y57785D02*
X18515Y57783D01*
X18614Y57777D01*
X18714Y57767D01*
X18812Y57754D01*
X18911Y57736D01*
X19008Y57715D01*
X19104Y57690D01*
X19200Y57661D01*
X19294Y57628D01*
X19387Y57592D01*
X19478Y57552D01*
X19568Y57508D01*
X19656Y57461D01*
X19742Y57411D01*
X19826Y57357D01*
X19908Y57300D01*
X19987Y57240D01*
X20065Y57176D01*
X20139Y57110D01*
X20211Y57041D01*
X20280Y56969D01*
X20346Y56895D01*
X20410Y56817D01*
X20470Y56738D01*
X20527Y56656D01*
X20581Y56572D01*
X20631Y56486D01*
X20678Y56398D01*
X20722Y56308D01*
X20762Y56217D01*
X20798Y56124D01*
X20831Y56030D01*
X20860Y55934D01*
X20885Y55838D01*
X20906Y55741D01*
X20924Y55642D01*
X20937Y55544D01*
X20947Y55444D01*
X20953Y55345D01*
X20955Y55245D01*
X20953Y55104D01*
X20948Y54963D01*
X20938Y54822D01*
X20925Y54681D01*
X20909Y54541D01*
X20888Y54401D01*
X20864Y54262D01*
X20836Y54123D01*
X20805Y53986D01*
X20770Y53849D01*
X20732Y53713D01*
X20690Y53578D01*
X20644Y53445D01*
X20595Y53312D01*
X20542Y53181D01*
X20486Y53052D01*
X20427Y52923D01*
X20364Y52797D01*
X20298Y52672D01*
X20229Y52549D01*
X20156Y52428D01*
X20080Y52309D01*
X20001Y52191D01*
X19920Y52076D01*
X19835Y51964D01*
X19747Y51853D01*
X19656Y51745D01*
X19563Y51639D01*
X19466Y51536D01*
X19367Y51435D01*
X12065Y51753D02*
X11965Y51755D01*
X11866Y51761D01*
X11766Y51771D01*
X11668Y51784D01*
X11569Y51802D01*
X11472Y51823D01*
X11376Y51848D01*
X11280Y51877D01*
X11186Y51910D01*
X11093Y51946D01*
X11002Y51986D01*
X10912Y52030D01*
X10824Y52077D01*
X10738Y52127D01*
X10654Y52181D01*
X10572Y52238D01*
X10493Y52298D01*
X10415Y52362D01*
X10341Y52428D01*
X10269Y52497D01*
X10200Y52569D01*
X10134Y52643D01*
X10070Y52721D01*
X10010Y52800D01*
X9953Y52882D01*
X9899Y52966D01*
X9849Y53052D01*
X9802Y53140D01*
X9758Y53230D01*
X9718Y53321D01*
X9682Y53414D01*
X9649Y53508D01*
X9620Y53604D01*
X9595Y53700D01*
X9574Y53797D01*
X9556Y53896D01*
X9543Y53994D01*
X9533Y54094D01*
X9527Y54193D01*
X9525Y54293D01*
X9527Y54426D01*
X9532Y54559D01*
X9542Y54692D01*
X9555Y54825D01*
X9572Y54957D01*
X9592Y55089D01*
X9616Y55220D01*
X9644Y55350D01*
X9675Y55480D01*
X9710Y55608D01*
X9749Y55736D01*
X9791Y55862D01*
X9837Y55987D01*
X9886Y56111D01*
X9938Y56234D01*
X9994Y56355D01*
X10054Y56474D01*
X10116Y56592D01*
X10182Y56707D01*
X10251Y56821D01*
X10324Y56933D01*
X10399Y57043D01*
X10478Y57151D01*
X14288Y53022D02*
X14236Y52938D01*
X14181Y52855D01*
X14122Y52775D01*
X14061Y52697D01*
X13997Y52622D01*
X13929Y52549D01*
X13859Y52478D01*
X13787Y52411D01*
X13712Y52346D01*
X13634Y52284D01*
X13554Y52225D01*
X13472Y52169D01*
X13388Y52117D01*
X13302Y52068D01*
X13214Y52022D01*
X13124Y51979D01*
X13033Y51940D01*
X12940Y51905D01*
X12846Y51873D01*
X12751Y51845D01*
X12655Y51820D01*
X12558Y51800D01*
X12460Y51782D01*
X12362Y51769D01*
X12263Y51760D01*
X12164Y51754D01*
X12065Y51752D01*
X16192Y56515D02*
X16244Y56599D01*
X16299Y56682D01*
X16358Y56762D01*
X16419Y56840D01*
X16483Y56915D01*
X16551Y56988D01*
X16621Y57059D01*
X16693Y57126D01*
X16768Y57191D01*
X16846Y57253D01*
X16926Y57312D01*
X17008Y57368D01*
X17092Y57420D01*
X17178Y57469D01*
X17266Y57515D01*
X17356Y57558D01*
X17447Y57597D01*
X17540Y57632D01*
X17634Y57664D01*
X17729Y57692D01*
X17825Y57717D01*
X17922Y57737D01*
X18020Y57755D01*
X18118Y57768D01*
X18217Y57777D01*
X18316Y57783D01*
X18415Y57785D01*
X16193Y56515D02*
X14288Y53023D01*
X9525Y61849D02*
X20955Y65659D01*
X9525Y69469D01*
X12065Y73914D02*
X9525Y77089D01*
X20955Y77089D01*
X20955Y73914D02*
X20955Y80264D01*
M02*
