G04 EAGLE Gerber RS-274X export*
G75*
%MOMM*%
%FSLAX34Y34*%
%LPD*%
%INSoldermask Top*%
%IPPOS*%
%AMOC8*
5,1,8,0,0,1.08239X$1,22.5*%
G01*
%ADD10R,0.803200X0.553200*%
%ADD11R,1.303200X1.903200*%
%ADD12R,1.678200X0.653200*%
%ADD13R,1.003200X1.603200*%
%ADD14R,1.553200X2.003200*%
%ADD15R,0.853200X2.343200*%
%ADD16R,0.853200X1.803200*%
%ADD17R,1.303200X0.653200*%
%ADD18R,1.353200X0.653200*%
%ADD19R,0.853200X1.503200*%
%ADD20R,0.803200X1.353200*%
%ADD21R,1.363200X1.703200*%
%ADD22R,1.203200X1.303200*%
%ADD23C,1.524000*%
%ADD24C,0.959600*%


D10*
X164300Y308300D03*
X164300Y301800D03*
X164300Y295300D03*
X185300Y295300D03*
X185300Y301800D03*
X185300Y308300D03*
D11*
X174800Y301800D03*
D12*
X84920Y308650D03*
X84920Y302150D03*
X84920Y295650D03*
X84920Y289150D03*
X84920Y282650D03*
X84920Y276150D03*
X84920Y269650D03*
X84920Y263150D03*
X84920Y256650D03*
X84920Y250150D03*
X143680Y250150D03*
X143680Y256650D03*
X143680Y263150D03*
X143680Y269650D03*
X143680Y276150D03*
X143680Y282650D03*
X143680Y289150D03*
X143680Y295650D03*
X143680Y302150D03*
X143680Y308650D03*
D13*
X132750Y136400D03*
X143750Y136400D03*
X154750Y136400D03*
X165750Y136400D03*
X176750Y136400D03*
X187750Y136400D03*
X198750Y136400D03*
X209750Y136400D03*
D14*
X218650Y156900D03*
D15*
X221900Y90600D03*
D16*
X221900Y39800D03*
D17*
X219650Y24750D03*
D18*
X219400Y18150D03*
D19*
X82900Y20400D03*
D20*
X82650Y79650D03*
D21*
X85450Y159400D03*
D22*
X98100Y210300D03*
X81100Y210300D03*
X116000Y210300D03*
X133000Y210300D03*
D23*
X44704Y25400D02*
X31496Y25400D01*
X31496Y50800D02*
X44704Y50800D01*
X44704Y76200D02*
X31496Y76200D01*
X31496Y101600D02*
X44704Y101600D01*
X44704Y127000D02*
X31496Y127000D01*
X31496Y152400D02*
X44704Y152400D01*
X44704Y177800D02*
X31496Y177800D01*
X31496Y203200D02*
X44704Y203200D01*
X44704Y228600D02*
X31496Y228600D01*
X31496Y254000D02*
X44704Y254000D01*
X44704Y279400D02*
X31496Y279400D01*
X31496Y304800D02*
X44704Y304800D01*
D24*
X96012Y243840D03*
X99060Y278892D03*
X147828Y202692D03*
X164592Y315468D03*
X100584Y301752D03*
X89916Y230124D03*
X71628Y173736D03*
X129540Y294132D03*
X163068Y327660D03*
X60960Y275844D03*
X163068Y288036D03*
X156972Y272796D03*
X83820Y222504D03*
X131064Y99060D03*
X83820Y146304D03*
X146304Y99060D03*
X102108Y228600D03*
M02*
