G04 EAGLE Gerber RS-274X export*
G75*
%MOMM*%
%FSLAX34Y34*%
%LPD*%
%INSolderpaste Top*%
%IPPOS*%
%AMOC8*
5,1,8,0,0,1.08239X$1,22.5*%
G01*
%ADD10R,0.600000X0.350000*%
%ADD11R,1.100000X1.700000*%
%ADD12R,1.475000X0.450000*%
%ADD13R,0.800000X1.400000*%
%ADD14R,1.350000X1.800000*%
%ADD15R,0.650000X2.140000*%
%ADD16R,0.650000X1.600000*%
%ADD17R,1.100000X0.450000*%
%ADD18R,1.150000X0.450000*%
%ADD19R,0.650000X1.300000*%
%ADD20R,0.600000X1.150000*%
%ADD21R,1.160000X1.500000*%
%ADD22R,1.000000X1.100000*%


D10*
X164300Y308300D03*
X164300Y301800D03*
X164300Y295300D03*
X185300Y295300D03*
X185300Y301800D03*
X185300Y308300D03*
D11*
X174800Y301800D03*
D12*
X84920Y308650D03*
X84920Y302150D03*
X84920Y295650D03*
X84920Y289150D03*
X84920Y282650D03*
X84920Y276150D03*
X84920Y269650D03*
X84920Y263150D03*
X84920Y256650D03*
X84920Y250150D03*
X143680Y250150D03*
X143680Y256650D03*
X143680Y263150D03*
X143680Y269650D03*
X143680Y276150D03*
X143680Y282650D03*
X143680Y289150D03*
X143680Y295650D03*
X143680Y302150D03*
X143680Y308650D03*
D13*
X132750Y136400D03*
X143750Y136400D03*
X154750Y136400D03*
X165750Y136400D03*
X176750Y136400D03*
X187750Y136400D03*
X198750Y136400D03*
X209750Y136400D03*
D14*
X218650Y156900D03*
D15*
X221900Y90600D03*
D16*
X221900Y39800D03*
D17*
X219650Y24750D03*
D18*
X219400Y18150D03*
D19*
X82900Y20400D03*
D20*
X82650Y79650D03*
D21*
X85450Y159400D03*
D22*
X98100Y210300D03*
X81100Y210300D03*
X116000Y210300D03*
X133000Y210300D03*
M02*
