M48
;GenerationSoftware,Autodesk,EAGLE,9.2.2*%
;CreationDate,2019-07-21T03:11:32Z*%
FMAT,2
ICI,OFF
METRIC,TZ,000.000
T2C0.350
T1C0.813
%
G90
M71
T1
X3810Y2540
X3810Y5080
X3810Y7620
X3810Y10160
X3810Y12700
X3810Y15240
X3810Y17780
X3810Y20320
X3810Y22860
X3810Y25400
X3810Y27940
X3810Y30480
T2
X9601Y24384
X9906Y27889
X14783Y20269
X16459Y31547
X10058Y30175
X8992Y23012
X7163Y17374
X12954Y29413
X16307Y32766
X6096Y27584
X16307Y28804
X15697Y27280
X8382Y22250
X13106Y9906
X8382Y14630
X14630Y9906
X10211Y22860
M30